<svg xmlns="http://www.w3.org/2000/svg" width="943" height="921" xmlns:v="https://vecta.io/nano"><path d="M0 0h943v921H0V0z" fill="#fdfdfd"/><path d="M469.926 155.727l3.678-.038 11.709-.064 2.009-.007c18.967-.05 37.234.298 55.761 4.694 2.866.676 5.737 1.258 8.628 1.817C595.203 170.818 638.072 190.716 673 218l3.195 2.391c6.711 5.027 12.985 10.355 19.102 16.09a201.47 201.47 0 0 0 6.766 6.02c5.249 4.558 10.102 9.511 14.938 14.5l2.07 2.121c3.939 4.259 3.939 4.259 3.902 6.718-1.442 3.202-3.81 5.382-6.287 7.8l-1.675 1.672-5.506 5.443-3.815 3.795-10.064 9.974-16.1 15.974-5.634 5.575-3.448 3.418-1.589 1.563c-2.242 2.228-4.093 4.303-5.855 6.946h-2l-.687 1.75c-1.657 2.84-3.738 4.202-6.312 6.25-.979 1.107-1.937 2.233-2.875 3.375-2.555 3.079-5.318 5.548-8.398 8.086-2.369 2.112-4.306 4.504-6.324 6.945-1.909 2.17-4.116 3.835-6.402 5.594-2.312 2.251-4.566 4.548-6.801 6.875l-1.887 1.938-1.762 1.832C618 372 618 372 616 372c-1.593-1.948-3.084-3.905-4.562-5.937-7.333-9.777-15.839-17.516-25.437-25.062l-2.02-1.617c-24.23-18.874-57.152-32.244-88.008-32.656l-2.599-.038c-18.596-.221-36.453-.31-54.374 5.312l-2.837.877C418.697 318.431 402.941 326.435 388 337a196.53 196.53 0 0 0 12.385 13.499l1.84 1.841 5.966 5.95 4.176 4.171 10.958 10.933 11.134 11.114 17.988 17.95L462 412l2.719 2.719L537 487l2.38 2.38 7.256 7.263 2.732 2.736 1.453 1.456 33.235 33.274 19.201 19.225 16.783 16.802 8.873 8.885 8.34 8.348 3.057 3.063 4.179 4.18 2.36 2.363c1.961 1.849 3.957 3.463 6.149 5.026-1.633 4.006-4.443 6.847-7.375 9.938-2.681 2.849-5.312 5.668-7.746 8.734-1.736 2.151-3.461 3.862-5.566 5.641-2.102 1.788-4.186 3.569-6.199 5.457C613.32 643.709 598.523 653.058 583 661l-2.071 1.073c-15.613 8.002-32.223 13.84-49.304 17.802l-2.477.579c-15.548 3.37-31.168 3.993-47.023 3.984l-2.998-.001C446.487 684.335 414.68 676.98 386 661l-3.793-1.922c-8.382-4.24-16.011-9.126-23.5-14.792l-4.993-3.665C342.414 632.272 332.66 622.161 323 612l-1.961-2.025c-1.695-1.834-1.695-1.834-4.039-4.975.273-3.434 1.75-5.118 4.143-7.483l2.002-2.001 2.172-2.125 2.215-2.202 7.031-6.938 4.756-4.715L351 568c3.621 1.207 4.347 2.433 6.625 5.438 7.328 9.37 14.945 17.288 24.375 24.563l2.84 2.246C396.297 609.12 408.586 616.48 422 622l1.815.753C454.358 635.168 492.134 638.148 524 629l3.059-.723c17.733-4.298 34.829-12.285 49.684-22.809C579 604 579 604 581 604c-2.087-3.77-4.398-6.644-7.448-9.68l-2.775-2.778-3.053-3.025-3.24-3.234-8.913-8.87-9.607-9.573-16.648-16.582-26.287-26.204-8.987-8.966-2.269-2.263-25.565-25.493-2.361-2.354-37.937-37.791-38.908-38.796-24.025-23.934-16.438-16.391-9.502-9.462-8.678-8.658-3.159-3.135-4.254-4.257-2.399-2.39C317 338 317 338 317.13 335.871c2.491-5.356 7.794-9.633 11.87-13.871l1.715-1.813C340.047 310.34 349.951 301.865 361 294l1.938-1.386c22.567-15.991 48.163-26.612 75.063-32.801l2.008-.47c14.644-3.196 29.192-3.718 44.117-3.655l2.881.008c45.025.182 92.298 13.84 127.275 43.371 1.676 1.129 1.676 1.129 3.615.681 2.461-.874 3.644-1.919 5.479-3.766l1.931-1.922 2.049-2.086 2.128-2.134 4.435-4.476 6.814-6.861 4.311-4.342 2.067-2.08 1.902-1.931 1.679-1.7c1.412-1.434 1.412-1.434 2.308-3.449l-1.778-.839c-2.112-1.104-3.884-2.303-5.777-3.743C623.178 243.744 598.594 229.504 572 221l-4.684-1.637c-10.781-3.699-21.649-6.487-32.816-8.738l-3.719-.76c-14.726-2.849-29.336-3.076-44.282-3.106l-8.897-.072c-17.147-.095-34.03 1.59-50.727 5.625l-2.707.637C384.756 222.439 348.201 240.03 317 266l-1.561 1.287c-12.129 10.034-23.62 20.71-33.381 33.104-1.346 1.707-2.728 3.386-4.148 5.031C256.507 330.347 242.192 361.028 232 392l-1.152 3.469c-2.357 7.648-3.925 15.436-5.473 23.281l-.625 3.135c-2.955 15.541-4.137 30.939-4.062 46.74l.007 2.502c.058 13.815.839 27.255 3.306 40.873l.618 3.478C235.897 577.453 268.753 636.997 319 676l1.753 1.378C343.464 695.182 368.918 709.072 396 719l3.664 1.387c22.654 8.105 47.219 12.611 71.258 12.887l3.063.038c22.88.228 44.63-.216 67.015-5.311l2.694-.583c5.524-1.214 10.912-2.721 16.306-4.417l2.88-.889c30.028-9.402 58.459-23.443 83.12-43.111l2.484-1.906C662.829 665.947 676.296 652.879 688 639c6.849 5.739 13.201 11.911 19.546 18.196l3.951 3.869 5.722 5.63 1.805 1.736c1.63 1.639 1.63 1.639 3.976 4.568-.451 3.551-1.867 5.274-4.316 7.828l-2.068 2.176-2.178 2.246-2.096 2.199c-13.356 13.966-13.356 13.966-19.529 18.863-2.913 2.327-5.78 4.659-8.562 7.141-27.375 24.317-61.235 41.208-95.441 53.53l-5.591 2.064c-6.287 2.352-12.579 4.276-19.093 5.891l-3.063.762c-20.429 4.924-41.129 8.446-62.167 8.468l-3.403.01-7.087.007-10.696.039c-12.096.03-23.756-.334-35.709-2.225l-5.207-.605c-75.674-9.271-148.999-53.001-196.363-112.25-19.323-25.008-35.778-51.25-47.492-80.707l-1.473-3.691C171.375 533.651 163.542 476.388 173 422l.634-3.66c2.805-15.741 6.208-31.193 11.366-46.34l.866-2.588C195.019 342.294 207.505 316.434 224 293l2.219-3.234C243.593 264.674 264.89 241.738 289 223l1.719-1.349c25.792-20.161 55.303-37.236 86.302-47.965l6.124-2.17c16.094-5.661 32.754-10.28 49.738-12.152 2.844-.331 5.571-.82 8.367-1.426 9.442-1.994 19.06-2.12 28.676-2.211z" fill="#263136"/><path d="M296 219l-3 7h-2l-1 3-3-4 3.375-3 1.898-1.687C294 219 294 219 296 219z" fill="#333d3f"/><path d="M382 282v2l-2.625 1.25c-4.167 2.161-8.044 4.419-11.375 7.75l-1-3 6.375-4 1.828-1.156C379.773 282 379.773 282 382 282z" fill="#444a4d"/><path d="M434 262c-1.187 1.5-1.187 1.5-3 3h-5l-1 1h-6c4.866-2.62 9.419-4.328 15-4z" fill="#484e51"/><path d="M354 573c1.875.125 1.875.125 4 1 1.75 2.563 1.75 2.563 3 5-3 0-3 0-5.687-2.5L353 574l1-1z" fill="#363d41"/><path d="M265 618l4 4v3l-4-1c-1.125-3.75-1.125-3.75 0-6z" fill="#353c40"/><path d="M362 643h4l1 3-3 2-3-2 1-3z" fill="#32393e"/><path d="M567 613c-1.625 5.75-1.625 5.75-5 8l2-5-3-1c3.75-2 3.75-2 6-2z" fill="#384044"/><path d="M266 313h2v2l2 1-4 4c-.934-3.01-1.044-3.867 0-7z" fill="#2f373b"/><path d="M319 202l3 1-4 4-4-2c2.313-1.562 2.313-1.562 5-3z" fill="#383f43"/></svg>