<svg xmlns="http://www.w3.org/2000/svg" width="812" height="789" xmlns:v="https://vecta.io/nano"><path d="M0 0h812v789H0V0z" fill="#242424"/><path d="M533 171l1.984 1.013c13.239 6.78 25.261 14.862 37.016 23.987l1.796 1.377c8.514 6.559 16.44 13.56 24.079 21.123l2.362 2.32 2.193 2.211 1.945 1.955C606 227 606 227 608 232l-83 83c-4.086-2.043-6.374-4.343-9.312-7.687l-2.957-3.277-1.432-1.593C493.885 283.103 469.982 271.824 445 266l-2.145-.5c-30.721-6.889-63.512-.764-90.855 14.5-2.832 1.823-5.545 3.699-8.215 5.75C342 287 342 287 340 287c4.953 5.823 10.167 11.298 15.593 16.68l2.545 2.537 6.936 6.9 7.501 7.468 11.299 11.25 22.169 22.089 3.493 3.484 5.292 5.278 19.914 19.857 1.838 1.832 29.566 29.439 30.352 30.254 18.729 18.648 12.804 12.766 7.4 7.366 7.994 7.982 2.4 2.353 2.134 2.163 1.868 1.86C551 499 551 499 550.795 501.092c-1.957 4.697-6.338 8.277-9.795 11.908l-2.445 2.641C526.182 528.58 511.638 538.434 496 547l-2.691 1.516c-7.068 3.779-14.686 6.205-22.258 8.763-1.994.701-3.945 1.477-5.906 2.264-24.9 9.343-59.502 8.339-85.145 2.457l-3.051-.586c-34.379-7.323-64.022-28.5-87.949-53.414l-1.707-1.758c-3.305-3.624-3.305-3.624-3.258-6.044 1.46-3.325 3.966-5.565 6.531-8.058l1.677-1.664 5.319-5.226 3.6-3.559L310 473c4.175 1.889 6.75 4.746 9.75 8.125l3.238 3.555L326 488c17.675 19.479 42.647 30.144 68 35l2.601.544c6.587 1.318 12.877 1.773 19.587 1.706l3.036-.023c14.6-.209 27.962-2.583 41.777-7.227l2.695-.898c10.593-3.914 21.028-9.683 30.305-16.102-1.401-3.167-3.048-5.293-5.497-7.729l-2.21-2.212-2.437-2.409-2.581-2.576-7.107-7.064-7.658-7.624-13.273-13.207-20.957-20.873-7.164-7.143-1.808-1.803-20.382-20.309-1.882-1.875-30.246-30.099-31.016-30.904-19.154-19.062-13.105-13.058-7.576-7.536-8.185-8.166-2.457-2.409-2.186-2.212-1.913-1.904C284 289 284 289 284.15 286.954c1.437-3.304 4.012-5.699 6.475-8.266l1.543-1.646L297 272l1.679-1.754c4.162-4.274 8.57-8.019 13.321-11.621l2.238-1.7c6.952-5.199 14.154-9.754 21.762-13.925l3.379-1.859C354.074 233.444 369.711 228.075 386 225l3.527-.684c30.548-4.809 64.094-1.712 92.473 10.684l3.527 1.52c11.623 5.145 23.329 11.211 33.285 19.168 2.779 2.496 2.779 2.496 5.023 2.301 3.267-1.491 5.515-3.951 7.989-6.484l1.657-1.663 3.447-3.488 5.293-5.34 3.354-3.385 1.603-1.616c2.748-2.754 2.748-2.754 4.822-6.013l-1.598-.711c-3.154-1.692-5.962-3.8-8.84-5.914-11.003-7.943-22.448-14.57-34.665-20.441-1.239-.609-2.466-1.241-3.68-1.898-6.3-3.365-12.975-5.427-19.78-7.535l-1.917-.597c-11.992-3.708-24.062-6.328-36.521-7.903l-1.985-.256c-5.412-.656-10.745-.918-16.195-.947l-2.583-.017-5.39-.02-8.043-.072c-15.364-.095-30.183 1.768-45.055 5.688l-2.496.643C319.764 201.446 279.564 227.274 252 263l-1.296 1.671C236.173 283.518 224.847 304.514 217 327l-1.047 2.875c-3.319 9.804-4.868 19.965-6.479 30.165l-1.025 6.04c-1.441 8.403-1.798 16.59-1.762 25.108l.007 2.093c.103 20.715 2.439 40.448 8.559 60.288l2 6.827c2.681 9.295 6.32 18.011 10.746 26.605l1.196 2.329c15.25 29.38 36.078 54.987 62.804 74.671l2.5 1.879c46.1 33.562 102.222 44.611 158.145 36.673 8.978-1.478 17.659-3.918 26.355-6.552l2.33-.667c19.391-5.548 38.233-14.659 54.67-26.333l2.895-2.016c9.461-6.722 18.348-13.89 26.328-22.332C567 543 567 543 569 543l.777-1.773c1.328-2.419 2.788-3.959 4.785-5.852 2.578-2.42 2.578-2.42 4.438-5.375 4.421.436 6.913 3.445 9.895 6.426l1.672 1.648 3.472 3.463 5.359 5.274 3.373 3.365 1.635 1.585c3.561 3.629 3.561 3.629 3.712 6.288-1.572 2.746-3.519 4.743-5.753 6.986l-1.428 1.44-4.623 4.587-1.588 1.576C586.91 580.383 578.965 587.606 570 594l-3.5 2.586c-7.574 5.564-15.369 10.694-23.5 15.414l-2.259 1.318c-9.732 5.634-19.328 10.685-29.967 14.366-2.925 1.02-5.759 2.114-8.621 3.289C487.086 637.049 470.999 640.46 455 643l-2.171.359c-11.797 1.869-23.666 1.819-35.579 1.828l-2.391.003c-14.685-.002-29.096-.491-43.546-3.378l-3.385-.669C330.688 633.536 294.771 617.744 265 594l-2.484-1.906C255.291 586.48 248.622 580.302 242 574l-1.572-1.485c-7.451-7.077-13.928-14.6-20.116-22.797-1.254-1.642-2.537-3.255-3.835-4.862C203.044 528.012 192.908 508.989 185 489l-1.648-3.969c-10.157-24.78-16.306-51.627-16.625-78.453l-.038-2.942c-.228-22.113.289-43.024 5.311-64.637l.5-2.295c.948-4.31 2.151-8.507 3.5-12.705l.856-2.725C180.575 309.5 184.408 298.029 190 287l1.762-3.699C201.912 262.115 215.005 243.196 231 226l3.5-4.062c19.461-22.292 44.425-39.316 70.5-52.937l1.958-1.045C327.799 156.947 351.831 149.885 375 146l2.879-.487C430.862 136.969 485.493 146.522 533 171z" fill="#d7cdc7"/><path d="M300 269l1 3-12 12-2-1 4.25-4.75 2.391-2.672L300 269z" fill="#c1bab5"/><path d="M548 235l1 3-3.75 3.938-2.109 2.215c-2.147 1.853-3.376 2.455-6.141 2.848 3.509-4.184 7.081-8.196 11-12z" fill="#b5aea9"/><path d="M247 209l2 1-3.25 3.938-1.828 2.215c-2.029 1.951-3.176 2.465-5.922 2.848l2.813-3.312 1.582-1.863L247 209z" fill="#b1a9a5"/><path d="M293 276l1 3-5 5-2-1 6-7z" fill="#b8b1ad"/><path d="M206 258c1 3 1 3 .25 5.125C205 265 205 265 202 266c1.125-2.972 2.223-5.334 4-8z" fill="#b5aeaa"/><path d="M290 493c0 4.39-2.128 5.769-5 9l-1-3 6-6z" fill="#a9a4a1"/></svg>