<?xml version="1.0" encoding="UTF-8"?>
<svg version="1.1" xmlns="http://www.w3.org/2000/svg" width="943" height="921">
<path d="M0 0 C311.19 0 622.38 0 943 0 C943 303.93 943 607.86 943 921 C631.81 921 320.62 921 0 921 C0 617.07 0 313.14 0 0 Z " fill="#FDFDFD" transform="translate(0,0)"/>
<path d="M0 0 C1.21365234 -0.01248276 2.42730469 -0.02496552 3.67773438 -0.03782654 C7.58076293 -0.07025723 11.48357607 -0.08925844 15.38671875 -0.1015625 C16.0497488 -0.10371639 16.71277885 -0.10587029 17.39590073 -0.10808945 C36.36296288 -0.15778926 54.63038516 0.19000513 73.15722656 4.58544922 C76.02328645 5.26142484 78.89426067 5.84325074 81.78515625 6.40234375 C125.27672368 15.09144211 168.1463269 34.98904553 203.07421875 62.2734375 C204.12867188 63.06234375 205.183125 63.85125 206.26953125 64.6640625 C212.98091746 69.69138883 219.25462681 75.01914594 225.37109375 80.75390625 C227.58636851 82.81872159 229.83200189 84.81068067 232.13671875 86.7734375 C237.38550999 91.33188667 242.23909359 96.28399984 247.07421875 101.2734375 C248.09902344 102.32337891 248.09902344 102.32337891 249.14453125 103.39453125 C253.08339323 107.65399827 253.08339323 107.65399827 253.04698181 110.1124115 C251.60545899 113.31480314 249.23651342 115.4940001 246.76000977 117.91235352 C246.2071228 118.46407227 245.65423584 119.01579102 245.08459473 119.58422852 C243.25597557 121.40566203 241.4170765 123.21634765 239.578125 125.02734375 C238.30566686 126.29166521 237.03394295 127.55672604 235.76292419 128.82249451 C232.41471332 132.15358174 229.05803848 135.47600242 225.69909668 138.79626465 C220.32394239 144.11224293 214.96138264 149.44091854 209.5994091 154.77018547 C207.72421588 156.63140998 205.84526177 158.48877102 203.9657135 160.34559631 C202.81633353 161.4849526 201.66703219 162.62438822 200.51782227 163.76391602 C199.99359177 164.2798381 199.46936127 164.79576019 198.929245 165.32731628 C196.68722496 167.55553292 194.83609067 169.63062962 193.07421875 172.2734375 C192.41421875 172.2734375 191.75421875 172.2734375 191.07421875 172.2734375 C190.84734375 172.8509375 190.62046875 173.4284375 190.38671875 174.0234375 C188.73021362 176.86316058 186.64853887 178.22568286 184.07421875 180.2734375 C183.09474495 181.38008055 182.13764015 182.5067751 181.19921875 183.6484375 C178.64428675 186.72745812 175.88121797 189.19674651 172.80078125 191.734375 C170.43189086 193.84601032 168.49471627 196.23863148 166.4765625 198.6796875 C164.56710842 200.84976345 162.36081218 202.51451948 160.07421875 204.2734375 C157.76252981 206.52429253 155.50828286 208.82148354 153.2734375 211.1484375 C152.65082031 211.7878125 152.02820313 212.4271875 151.38671875 213.0859375 C150.80535156 213.69050781 150.22398437 214.29507813 149.625 214.91796875 C148.07421875 216.2734375 148.07421875 216.2734375 146.07421875 216.2734375 C144.48145712 214.32539067 142.98994699 212.36811644 141.51171875 210.3359375 C134.17916448 200.55919848 125.67282183 192.82032123 116.07421875 185.2734375 C115.40777344 184.73976563 114.74132812 184.20609375 114.0546875 183.65625 C89.82481564 164.78245508 56.90291427 151.41193021 26.046875 151 C24.76045357 150.98107193 24.76045357 150.98107193 23.44804382 150.96176147 C4.85172862 150.74124973 -13.00534268 150.6515985 -30.92578125 156.2734375 C-32.33029541 156.7075293 -32.33029541 156.7075293 -33.76318359 157.15039062 C-51.22867005 162.70397316 -66.98460043 170.70809384 -81.92578125 181.2734375 C-77.99042674 185.98556712 -73.89491697 190.44579787 -69.54077148 194.77197266 C-68.93345184 195.37943832 -68.3261322 195.98690399 -67.70040894 196.61277771 C-65.71409491 198.5984013 -63.72427258 200.58046826 -61.734375 202.5625 C-60.34223355 203.95277305 -58.95031519 205.34326951 -57.55860901 206.73397827 C-53.908228 210.38055793 -50.25485588 214.02412629 -46.60083008 217.66705322 C-42.88767817 221.36997523 -39.17735132 225.0757255 -35.46679688 228.78125 C-29.47286233 234.7664169 -23.47722836 240.74987487 -17.47929382 246.73103333 C-14.29227877 249.90933023 -11.1077488 253.09008512 -7.92578125 256.2734375 C-7.02859375 257.170625 -6.13140625 258.0678125 -5.20703125 258.9921875 C18.88671875 283.0859375 42.98046875 307.1796875 67.07421875 331.2734375 C67.85966537 332.05874533 68.64511198 332.84405315 69.45436001 333.65315819 C71.87414243 336.07332906 74.29274795 338.49466568 76.71070862 340.91665649 C77.61211578 341.81950882 78.51352295 342.72236115 79.44224548 343.65257263 C79.9218466 344.1329492 80.40144772 344.61332577 80.8955822 345.1082592 C91.9715184 356.20193754 103.05037224 367.29269847 114.13082981 378.38186073 C120.53250592 384.78870192 126.93323316 391.19648587 133.33178711 397.60644531 C138.92421474 403.20883616 144.51839472 408.80947023 150.11469024 414.40799749 C153.07380542 417.36841567 156.03203533 420.32970638 158.98816109 423.29310989 C161.76604681 426.07778105 164.5462681 428.86009866 167.32830048 431.64062691 C168.34825259 432.66085409 169.3673483 433.68193827 170.38551903 434.70394325 C171.776266 436.09967053 173.17040707 437.49201336 174.56471252 438.88418579 C175.34358605 439.66398111 176.12245958 440.44377644 176.92493534 441.24720192 C178.88609334 443.09608239 180.88226536 444.70977529 183.07421875 446.2734375 C181.44094327 450.27976618 178.63137553 453.12059858 175.69921875 456.2109375 C173.01844963 459.06015067 170.38721942 461.87916042 167.953125 464.9453125 C166.21737238 467.09605794 164.49193495 468.80731668 162.38671875 470.5859375 C160.28499901 472.37373917 158.20026466 474.15522053 156.1875 476.04296875 C143.39384077 487.9820417 128.59681149 497.33140337 113.07421875 505.2734375 C112.39069336 505.62744629 111.70716797 505.98145508 111.00292969 506.34619141 C95.38978591 514.34802146 78.77987418 520.18649998 61.69921875 524.1484375 C60.88171143 524.33946045 60.0642041 524.5304834 59.22192383 524.72729492 C43.67409131 528.09729106 28.05353166 528.72059816 12.19921875 528.7109375 C11.20977264 528.71067566 10.22032654 528.71041382 9.20089722 528.71014404 C-23.43888644 528.60820946 -55.24626781 521.25341554 -83.92578125 505.2734375 C-85.18733001 504.62736664 -86.45173311 503.98684277 -87.71875 503.3515625 C-96.10112005 499.11135777 -103.72993018 494.22541457 -111.21826172 488.55908203 C-112.8682721 487.31673793 -114.53726343 486.10471098 -116.2109375 484.89453125 C-127.51197307 476.54549438 -137.26534897 466.43445582 -146.92578125 456.2734375 C-147.57289063 455.60505859 -148.22 454.93667969 -148.88671875 454.24804688 C-150.58203125 452.4140625 -150.58203125 452.4140625 -152.92578125 449.2734375 C-152.65314453 445.83951247 -151.17606344 444.15584575 -148.78295898 441.79003906 C-148.1223497 441.12965637 -147.46174042 440.46927368 -146.78111267 439.78887939 C-146.06443924 439.08768982 -145.34776581 438.38650024 -144.609375 437.6640625 C-143.87832047 436.93725281 -143.14726593 436.21044312 -142.39405823 435.46160889 C-140.05740968 433.14175349 -137.71054641 430.8325455 -135.36328125 428.5234375 C-133.77731089 426.95251307 -132.19201582 425.38090656 -130.60742188 423.80859375 C-126.72134303 419.95559266 -122.82682582 416.11128231 -118.92578125 412.2734375 C-115.30492542 413.48038944 -114.57882445 414.70635789 -112.30078125 417.7109375 C-104.97279893 427.0811444 -97.35582592 434.99883161 -87.92578125 442.2734375 C-86.98863281 443.01464844 -86.05148437 443.75585938 -85.0859375 444.51953125 C-73.62883904 453.39301556 -61.33934543 460.75383293 -47.92578125 466.2734375 C-47.32668945 466.5219043 -46.72759766 466.77037109 -46.11035156 467.02636719 C-15.5678506 479.44163419 22.20786545 482.42119192 54.07421875 473.2734375 C55.08355469 473.03496094 56.09289062 472.79648437 57.1328125 472.55078125 C74.86601319 468.25260343 91.96224846 460.26556904 106.81640625 449.7421875 C109.07421875 448.2734375 109.07421875 448.2734375 111.07421875 448.2734375 C108.98699618 444.50295109 106.67612547 441.62985734 103.62614822 438.59323788 C102.25251409 437.21825584 102.25251409 437.21825584 100.85112977 435.81549639 C99.83355652 434.80708308 98.8158957 433.79875815 97.79815674 432.79051208 C96.71784677 431.71291082 95.63798473 430.63486034 94.55853248 429.55639988 C91.59201828 426.59511773 88.61933045 423.64010113 85.64564252 420.68602526 C82.43954348 417.49883965 79.23927934 414.30580537 76.03840637 411.1133728 C70.49197007 405.58294533 64.94216305 400.05591936 59.39032745 394.5309124 C50.62086958 385.80334586 41.8611809 377.06601082 33.10296631 368.3271637 C30.10728881 365.33836591 27.11153524 362.34964439 24.11574936 359.36095524 C23.3671226 358.61410013 22.61849584 357.86724503 21.84718342 357.09775795 C13.32719024 348.59825669 4.80486768 340.10109255 -3.71826172 331.60473633 C-4.88693611 330.43972577 -4.88693611 330.43972577 -6.07922009 329.25117964 C-18.72064899 316.64980431 -31.36796017 304.05434449 -44.01655206 291.46015965 C-56.99486158 278.53719856 -69.96360482 265.60468841 -82.92427945 252.6640411 C-90.92404086 244.67738209 -98.93173509 236.69884251 -106.94966826 228.73042584 C-112.43753281 223.27517155 -117.91639442 217.81098533 -123.38813773 212.33956151 C-126.54922397 209.17924502 -129.71434281 206.02324857 -132.89037895 202.87795067 C-135.79377325 200.00250057 -138.68558301 197.11592171 -141.56834617 194.21979249 C-142.61701444 193.17039474 -143.6699902 192.12528159 -144.72749147 191.08478563 C-146.15677401 189.67729382 -147.56946226 188.2530084 -148.98107529 186.82779598 C-149.77268484 186.03916918 -150.56429439 185.25054237 -151.37989211 184.43801779 C-152.92578125 182.2734375 -152.92578125 182.2734375 -152.79586053 180.14430767 C-150.30481798 174.78799438 -145.00159995 170.51088349 -140.92578125 166.2734375 C-140.35988281 165.67499023 -139.79398438 165.07654297 -139.2109375 164.45996094 C-129.87874073 154.6133502 -119.97437111 146.13875704 -108.92578125 138.2734375 C-107.96671875 137.58725342 -107.96671875 137.58725342 -106.98828125 136.88720703 C-84.42127317 120.89636615 -58.82502383 110.27514376 -31.92578125 104.0859375 C-31.26304199 103.93092773 -30.60030273 103.77591797 -29.91748047 103.61621094 C-15.2729886 100.42066933 -0.72587657 99.89859021 14.19921875 99.9609375 C15.14987213 99.96342499 16.10052551 99.96591248 17.07998657 99.96847534 C62.10476902 100.15078492 109.37848301 113.80883605 144.35546875 143.33984375 C146.03129414 144.46873759 146.03129414 144.46873759 147.97065735 144.02049255 C150.43119759 143.14666067 151.6146851 142.1014376 153.44995117 140.25415039 C154.08708542 139.62001724 154.72421967 138.98588409 155.38066101 138.33253479 C156.05683975 137.64400925 156.73301849 136.9554837 157.4296875 136.24609375 C158.13192947 135.54197861 158.83417145 134.83786346 159.55769348 134.1124115 C161.03962131 132.62376464 162.51794853 131.13152601 163.99291992 129.63598633 C166.25642571 127.34130344 168.5304489 125.05748368 170.80664062 122.77539062 C172.24411549 121.32874667 173.6809854 119.88150129 175.1171875 118.43359375 C175.79943893 117.74709244 176.48169037 117.06059113 177.18461609 116.35328674 C177.81229385 115.71600143 178.43997162 115.07871613 179.08666992 114.42211914 C179.64086105 113.86110001 180.19505219 113.30008087 180.76603699 112.72206116 C182.17850832 111.28781784 182.17850832 111.28781784 183.07421875 109.2734375 C182.48753418 108.99669189 181.90084961 108.71994629 181.29638672 108.43481445 C179.18438233 107.33101255 177.41254145 106.13212021 175.51953125 104.69140625 C153.25211255 88.01767202 128.66812496 73.77779895 102.07421875 65.2734375 C100.51232528 64.72985904 98.95118484 64.18411416 97.390625 63.63671875 C86.60959044 59.93798991 75.74159853 57.14988596 64.57421875 54.8984375 C63.34703125 54.64779541 62.11984375 54.39715332 60.85546875 54.13891602 C46.12923438 51.28947694 31.51912158 51.06246096 16.57324219 51.03320312 C13.60713127 51.02354467 10.64172934 50.99243778 7.67578125 50.9609375 C-9.47155581 50.86592437 -26.35459507 52.55075523 -43.05078125 56.5859375 C-43.94418213 56.79613525 -44.83758301 57.00633301 -45.75805664 57.22290039 C-85.16966908 66.71235897 -121.72498919 84.30391596 -152.92578125 110.2734375 C-153.44076172 110.69818359 -153.95574219 111.12292969 -154.48632812 111.56054688 C-166.61524531 121.59485526 -178.10633666 132.27046841 -187.8671875 144.6640625 C-189.21350092 146.37058501 -190.59557166 148.04964321 -192.015625 149.6953125 C-213.41889792 174.62064299 -227.73386482 205.30182048 -237.92578125 236.2734375 C-238.49619141 237.99046875 -238.49619141 237.99046875 -239.078125 239.7421875 C-241.43497098 247.39010537 -243.00336242 255.17783189 -244.55078125 263.0234375 C-244.75719238 264.05807129 -244.96360352 265.09270508 -245.17626953 266.15869141 C-248.13091952 281.70000632 -249.31341103 297.09808296 -249.23828125 312.8984375 C-249.2361261 313.72415253 -249.23397095 314.54986755 -249.23175049 315.40060425 C-249.17424574 329.2152067 -248.39246978 342.65608569 -245.92578125 356.2734375 C-245.61979004 357.99481934 -245.61979004 357.99481934 -245.30761719 359.75097656 C-234.0289024 421.7264472 -201.17327574 481.27058692 -150.92578125 520.2734375 C-150.34731445 520.72831543 -149.76884766 521.18319336 -149.17285156 521.65185547 C-126.46218966 539.45515853 -101.00747915 553.34589853 -73.92578125 563.2734375 C-72.71664062 563.73105469 -71.5075 564.18867187 -70.26171875 564.66015625 C-47.60781943 572.76544528 -23.0429759 577.27152741 0.99609375 577.546875 C2.51241646 577.56559914 2.51241646 577.56559914 4.05937195 577.58470154 C26.93893211 577.81255878 48.68940888 577.36878437 71.07421875 572.2734375 C72.40791504 571.98509033 72.40791504 571.98509033 73.76855469 571.69091797 C79.29274991 570.47646326 84.68007071 568.96980406 90.07421875 567.2734375 C91.02474121 566.98017578 91.97526367 566.68691406 92.95458984 566.38476562 C122.98282602 556.98231902 151.41318633 542.94174557 176.07421875 523.2734375 C176.8940625 522.644375 177.71390625 522.0153125 178.55859375 521.3671875 C192.90320339 510.22042077 206.36980503 497.15276565 218.07421875 483.2734375 C224.92283332 489.01230187 231.27558973 495.18414057 237.62011719 501.46923828 C238.93190598 502.76431013 240.24905703 504.05397111 241.57128906 505.33837891 C243.49063975 507.20328329 245.39330474 509.0838216 247.29296875 510.96875 C247.88863647 511.54174835 248.4843042 512.1147467 249.09802246 512.70510864 C250.72851562 514.34423828 250.72851562 514.34423828 253.07421875 517.2734375 C252.62297 520.82428952 251.20756095 522.54737115 248.7578125 525.1015625 C248.07525391 525.81957031 247.39269531 526.53757812 246.68945312 527.27734375 C245.61147461 528.38916016 245.61147461 528.38916016 244.51171875 529.5234375 C243.82013672 530.24917969 243.12855469 530.97492187 242.41601562 531.72265625 C229.060235 545.6883467 229.060235 545.6883467 222.88671875 550.5859375 C219.97410001 552.9128666 217.10655815 555.24458929 214.32421875 557.7265625 C186.94932547 582.04362196 153.08904814 598.93417377 118.88330078 611.25610352 C117.01547482 611.93255326 115.1517742 612.62050787 113.29248047 613.32006836 C107.00549399 615.67198246 100.71357478 617.59561858 94.19921875 619.2109375 C93.18835205 619.46254639 92.17748535 619.71415527 91.13598633 619.97338867 C70.70725166 624.89752332 50.00698082 628.41915891 28.96875 628.44140625 C27.84587082 628.44473465 26.72299164 628.44806305 25.56608582 628.45149231 C23.20381068 628.45652416 20.84152853 628.4589018 18.47924805 628.45874023 C14.91377721 628.46092095 11.3486192 628.47910153 7.78320312 628.49804688 C-4.31287909 628.52788297 -15.97264028 628.16391612 -27.92578125 626.2734375 C-29.66049226 626.06347292 -31.39609888 625.86066857 -33.1328125 625.66796875 C-108.80656713 616.39686747 -182.13160248 572.66695692 -229.49609375 513.41796875 C-248.81896813 488.41006863 -265.27419632 462.16795641 -276.98828125 432.7109375 C-277.47425781 431.49277344 -277.96023438 430.27460937 -278.4609375 429.01953125 C-298.55057176 377.92431403 -306.38346171 320.66137183 -296.92578125 266.2734375 C-296.71646973 265.06558594 -296.5071582 263.85773438 -296.29150391 262.61328125 C-293.4860752 246.87270178 -290.08378963 231.41992146 -284.92578125 216.2734375 C-284.64009277 215.41943359 -284.3544043 214.56542969 -284.06005859 213.68554688 C-274.90696197 186.56745833 -262.42104102 160.70717956 -245.92578125 137.2734375 C-245.19359375 136.20609375 -244.46140625 135.13875 -243.70703125 134.0390625 C-226.33238418 108.94793305 -205.03623565 86.01162958 -180.92578125 67.2734375 C-180.35843262 66.82822754 -179.79108398 66.38301758 -179.20654297 65.92431641 C-153.41413459 45.76355734 -123.90318789 28.6883036 -92.90478516 17.95898438 C-90.85827224 17.2500517 -88.82019027 16.51945748 -86.78125 15.7890625 C-70.68730797 10.12773022 -54.0267518 5.50909572 -37.04296875 3.63671875 C-34.19927756 3.30531113 -31.47176821 2.81629916 -28.67578125 2.2109375 C-19.23407077 0.21687628 -9.61616482 0.09079155 0 0 Z " fill="#263136" transform="translate(469.92578125,155.7265625)"/>
<path d="M0 0 C-1.875 4.75 -1.875 4.75 -3 7 C-3.66 7 -4.32 7 -5 7 C-5.33 7.99 -5.66 8.98 -6 10 C-6.99 8.68 -7.98 7.36 -9 6 C-7.8803014 4.99406757 -6.7540588 3.9954151 -5.625 3 C-4.68527344 2.1646875 -4.68527344 2.1646875 -3.7265625 1.3125 C-2 0 -2 0 0 0 Z " fill="#333D3F" transform="translate(296,219)"/>
<path d="M0 0 C0 0.66 0 1.32 0 2 C-1.299375 2.61875 -1.299375 2.61875 -2.625 3.25 C-6.79173415 5.41052882 -10.66877952 7.66877952 -14 11 C-14.33 10.01 -14.66 9.02 -15 8 C-12.8782637 6.66121428 -10.75294812 5.32884524 -8.625 4 C-8.02171875 3.6184375 -7.4184375 3.236875 -6.796875 2.84375 C-2.2265625 0 -2.2265625 0 0 0 Z " fill="#444A4D" transform="translate(382,282)"/>
<path d="M0 0 C-1.1875 1.5 -1.1875 1.5 -3 3 C-5.625 3.125 -5.625 3.125 -8 3 C-8.33 3.33 -8.66 3.66 -9 4 C-10.99958364 4.04080783 -13.00045254 4.04254356 -15 4 C-10.13371581 1.37969313 -5.5814298 -0.3283194 0 0 Z " fill="#484E51" transform="translate(434,262)"/>
<path d="M0 0 C1.875 0.125 1.875 0.125 4 1 C5.75 3.5625 5.75 3.5625 7 6 C4 6 4 6 1.3125 3.5 C0.549375 2.675 -0.21375 1.85 -1 1 C-0.67 0.67 -0.34 0.34 0 0 Z " fill="#363D41" transform="translate(354,573)"/>
<path d="M0 0 C2 1.8125 2 1.8125 4 4 C4 4.99 4 5.98 4 7 C2.68 6.67 1.36 6.34 0 6 C-1.125 2.25 -1.125 2.25 0 0 Z " fill="#353C40" transform="translate(265,618)"/>
<path d="M0 0 C1.32 0 2.64 0 4 0 C4.33 0.99 4.66 1.98 5 3 C4.01 3.66 3.02 4.32 2 5 C1.01 4.34 0.02 3.68 -1 3 C-0.67 2.01 -0.34 1.02 0 0 Z " fill="#32393E" transform="translate(362,643)"/>
<path d="M0 0 C-1.625 5.75 -1.625 5.75 -5 8 C-4.34 6.35 -3.68 4.7 -3 3 C-3.99 2.67 -4.98 2.34 -6 2 C-2.25 0 -2.25 0 0 0 Z " fill="#384044" transform="translate(567,613)"/>
<path d="M0 0 C0.66 0 1.32 0 2 0 C2 0.66 2 1.32 2 2 C2.66 2.33 3.32 2.66 4 3 C2.68 4.32 1.36 5.64 0 7 C-0.93423645 3.98968256 -1.04449911 3.13349732 0 0 Z " fill="#2F373B" transform="translate(266,313)"/>
<path d="M0 0 C0.99 0.33 1.98 0.66 3 1 C1.68 2.32 0.36 3.64 -1 5 C-2.32 4.34 -3.64 3.68 -5 3 C-2.6875 1.4375 -2.6875 1.4375 0 0 Z " fill="#383F43" transform="translate(319,202)"/>
</svg>
