<?xml version="1.0" encoding="UTF-8"?>
<svg version="1.1" xmlns="http://www.w3.org/2000/svg" width="812" height="789">
<path d="M0 0 C267.96 0 535.92 0 812 0 C812 260.37 812 520.74 812 789 C544.04 789 276.08 789 0 789 C0 528.63 0 268.26 0 0 Z " fill="#242424" transform="translate(0,0)"/>
<path d="M0 0 C0.65468262 0.33435059 1.30936523 0.66870117 1.98388672 1.01318359 C15.22256247 7.79332181 27.24522498 15.87503666 39 25 C39.59264648 25.45439453 40.18529297 25.90878906 40.79589844 26.37695312 C49.30970679 32.93554266 57.23601201 39.93680473 64.875 47.5 C65.65439941 48.26562256 66.43379883 49.03124512 67.23681641 49.82006836 C67.96046387 50.5497583 68.68411133 51.27944824 69.4296875 52.03125 C70.07147949 52.67642578 70.71327148 53.32160156 71.37451172 53.98632812 C73 56 73 56 75 61 C47.61 88.39 20.22 115.78 -8 144 C-12.08550057 141.95724972 -14.37405814 139.6570182 -17.3125 136.3125 C-18.29727749 135.21924108 -19.28295122 134.12678879 -20.26953125 133.03515625 C-20.74213379 132.50937988 -21.21473633 131.98360352 -21.70166016 131.44189453 C-39.11501993 112.10317643 -63.01798874 100.82439623 -88 95 C-89.06154297 94.7522583 -89.06154297 94.7522583 -90.14453125 94.49951172 C-120.86579857 87.61002529 -153.65678539 93.73544219 -181 109 C-183.83205755 110.82257718 -186.54540238 112.69869685 -189.21484375 114.75 C-191 116 -191 116 -193 116 C-188.04664596 121.82262649 -182.8329956 127.29794121 -177.40686035 132.67974854 C-176.56712913 133.51680635 -175.72739791 134.35386417 -174.86222029 135.21628737 C-172.55199664 137.51824219 -170.23953032 139.81791566 -167.9261117 142.11665869 C-165.4239627 144.60411735 -162.92484391 147.0946169 -160.42544556 149.58483887 C-156.66020915 153.335726 -152.89402184 157.08565408 -149.12670118 160.83444783 C-141.7321756 168.19262442 -134.34391453 175.5570625 -126.95788574 182.92376709 C-125.79351685 184.08502578 -124.62914423 185.24628072 -123.46476793 186.40753198 C-121.70077967 188.16679501 -119.93679491 189.92606155 -118.17282477 191.68534274 C-111.53552884 198.30494406 -104.89753386 204.92384393 -98.25878906 211.54199219 C-97.65239985 212.14650435 -97.04601064 212.75101651 -96.42124599 213.37384722 C-86.57165341 223.19248017 -76.71473595 233.00373179 -66.85559541 242.81277612 C-56.7292301 252.88812223 -46.61237581 262.97294932 -36.50394201 273.06628585 C-30.26937662 279.29086981 -24.02720299 285.50762309 -17.77513915 291.714632 C-13.49872916 295.96156362 -9.23141615 300.21749318 -4.97126883 304.48073748 C-2.51086991 306.94235908 -0.04649984 309.39964449 2.42882919 311.84626007 C5.10506112 314.49558687 7.76566057 317.1596616 10.42272949 319.82818604 C11.21462095 320.60483116 12.0065124 321.38147629 12.82240057 322.18165612 C13.87885771 323.25212107 13.87885771 323.25212107 14.95665741 324.34421158 C15.5729462 324.95805969 16.18923499 325.57190781 16.8241992 326.20435739 C18 328 18 328 17.79518938 330.09152389 C15.8381995 334.78835277 11.45669476 338.36893191 8 342 C6.78957031 343.30710937 6.78957031 343.30710937 5.5546875 344.640625 C-6.81751332 357.58035797 -21.36223491 367.43392776 -37 376 C-37.88816406 376.50015625 -38.77632813 377.0003125 -39.69140625 377.515625 C-46.75911986 381.29463938 -54.37740526 383.72053035 -61.94897461 386.27905273 C-63.94319911 386.98003416 -65.89386922 387.75609279 -67.85546875 388.54296875 C-92.7550384 397.88637451 -127.35741281 396.88157948 -153 391 C-154.00675781 390.80664062 -155.01351562 390.61328125 -156.05078125 390.4140625 C-190.42949625 383.09134866 -220.07304802 361.91411503 -244 337 C-244.84498047 336.12988281 -244.84498047 336.12988281 -245.70703125 335.2421875 C-249.01198591 331.6185733 -249.01198591 331.6185733 -248.96508789 329.19824219 C-247.5051422 325.87283086 -244.99929977 323.63299106 -242.43359375 321.140625 C-241.88010757 320.59138367 -241.3266214 320.04214233 -240.75636292 319.47625732 C-238.99033441 317.72699536 -237.21415308 315.98846356 -235.4375 314.25 C-234.23694559 313.064495 -233.0370674 311.87830476 -231.83789062 310.69140625 C-228.89970905 307.78626707 -225.95237926 304.89070663 -223 302 C-218.82493292 303.88914541 -216.25023003 306.74646975 -213.25 310.125 C-212.17145575 311.31069948 -211.09202978 312.49559754 -210.01171875 313.6796875 C-209.0075251 314.78619757 -208.0035906 315.89294293 -207 317 C-189.32458657 336.47902704 -164.35290131 347.14433388 -139 352 C-138.14172607 352.17950195 -137.28345215 352.35900391 -136.39916992 352.54394531 C-129.81260209 353.86231264 -123.5226404 354.31711288 -116.8125 354.25 C-115.8107373 354.24250732 -114.80897461 354.23501465 -113.77685547 354.22729492 C-99.17649372 354.01784912 -85.8145067 351.64459669 -72 347 C-71.11054688 346.70351563 -70.22109375 346.40703125 -69.3046875 346.1015625 C-58.71211824 342.18769792 -48.27702023 336.41806431 -39 330 C-40.40064663 326.83291741 -42.04780014 324.70661479 -44.49730206 322.27056885 C-45.22644713 321.54052517 -45.95559221 320.81048149 -46.70683259 320.05831528 C-47.51100627 319.26337788 -48.31517995 318.46844048 -49.14372253 317.64941406 C-50.42141249 316.37445257 -50.42141249 316.37445257 -51.72491437 315.07373428 C-54.09028801 312.71532535 -56.46005976 310.3614964 -58.83173215 308.00943184 C-61.38821365 305.47185877 -63.93886654 302.92843986 -66.49012756 300.38562012 C-70.91142421 295.98033469 -75.33608707 291.57845408 -79.76277733 287.17858887 C-86.75529048 280.22796332 -93.73803766 273.26757266 -100.71931458 266.30566406 C-103.10717638 263.92468204 -105.49511421 261.54377626 -107.8830843 259.16290283 C-108.47983076 258.56792803 -109.07657722 257.97295322 -109.6914069 257.35994887 C-116.48345017 250.58839896 -123.27782081 243.81918613 -130.07299805 237.05078125 C-131.00476682 236.12267631 -131.00476682 236.12267631 -131.9553592 235.17582178 C-142.03287388 225.13835537 -152.11626906 215.10681121 -162.20094868 205.07654428 C-172.54855931 194.78428825 -182.88659642 184.48248034 -193.21657449 174.17252731 C-199.5925166 167.80968587 -205.9763658 161.4549858 -212.37047515 155.1104002 C-216.74731122 150.76618236 -221.11512737 146.4130337 -225.47584435 142.05263615 C-227.99492921 139.53432081 -230.51800378 137.020356 -233.05203629 134.51707458 C-235.79391621 131.8082841 -238.51643672 129.08056666 -241.23722839 126.35058594 C-242.04809424 125.55564854 -242.85896009 124.76071114 -243.69439763 123.94168472 C-244.41571946 123.21164104 -245.1370413 122.48159737 -245.88022137 121.72943115 C-246.51137157 121.10126369 -247.14252178 120.47309624 -247.79279774 119.8258934 C-249 118 -249 118 -248.84977132 115.95367813 C-247.41286309 112.65013503 -244.83796457 110.25482748 -242.375 107.6875 C-241.86582031 107.14416016 -241.35664063 106.60082031 -240.83203125 106.04101562 C-239.23552722 104.34648064 -237.62070699 102.67138397 -236 101 C-235.44602539 100.42121094 -234.89205078 99.84242188 -234.32128906 99.24609375 C-230.15881016 94.97252086 -225.75142726 91.2273244 -221 87.625 C-220.26160889 87.06409668 -219.52321777 86.50319336 -218.76245117 85.92529297 C-211.81019134 80.72615996 -204.6081568 76.1707995 -197 72 C-195.88496094 71.38640625 -194.76992188 70.7728125 -193.62109375 70.140625 C-178.92568817 62.44384247 -163.28931273 57.07504378 -147 54 C-145.83597656 53.77441406 -144.67195312 53.54882812 -143.47265625 53.31640625 C-112.92416394 48.50692592 -79.37841522 51.60442189 -51 64 C-49.83597656 64.50144531 -48.67195313 65.00289063 -47.47265625 65.51953125 C-35.84934364 70.66409979 -24.1433014 76.73026096 -14.1875 84.6875 C-11.40873762 87.18389592 -11.40873762 87.18389592 -9.16479492 86.98803711 C-5.89805853 85.49706133 -3.6502804 83.03681556 -1.17578125 80.50390625 C-0.62891159 79.95516342 -0.08204193 79.40642059 0.48139954 78.84104919 C1.63378508 77.68195146 2.78257219 76.51926649 3.92797852 75.35327148 C5.6844878 73.5655657 7.4514828 71.78879042 9.22070312 70.01367188 C10.3391684 68.88603795 11.45702806 67.75780296 12.57421875 66.62890625 C13.36792122 65.82882896 13.36792122 65.82882896 14.17765808 65.0125885 C16.92544622 62.25831302 16.92544622 62.25831302 19 59 C18.47277344 58.76539063 17.94554687 58.53078125 17.40234375 58.2890625 C14.24818026 56.59658453 11.44038726 54.48915552 8.5625 52.375 C-2.44042357 44.43211205 -13.88510948 37.80453117 -26.10229492 31.93359375 C-27.34085602 31.32427204 -28.56857049 30.69223523 -29.7824707 30.03515625 C-36.08202414 26.67051813 -42.75753057 24.60787641 -49.5625 22.5 C-50.19506714 22.30301514 -50.82763428 22.10603027 -51.47937012 21.90307617 C-63.47087105 18.1951729 -75.54113462 15.57499723 -88 14 C-88.98258286 13.87337982 -88.98258286 13.87337982 -89.98501587 13.74420166 C-95.3974644 13.08774186 -100.73007462 12.82616317 -106.1796875 12.796875 C-107.03192902 12.79117493 -107.88417053 12.78547485 -108.76223755 12.77960205 C-110.55892726 12.77021515 -112.3556337 12.76364342 -114.15234375 12.75976562 C-116.83365984 12.75014828 -119.5141784 12.71910084 -122.1953125 12.6875 C-137.55970716 12.59286988 -152.37796025 14.45513663 -167.25 18.375 C-168.07371094 18.58705078 -168.89742187 18.79910156 -169.74609375 19.01757812 C-213.23587802 30.44628888 -253.43614056 56.27425324 -281 92 C-281.42780762 92.55139648 -281.85561523 93.10279297 -282.29638672 93.67089844 C-296.82705014 112.5183776 -308.1532853 133.51389219 -316 156 C-316.34546875 156.94875 -316.6909375 157.8975 -317.046875 158.875 C-320.36608281 168.67942921 -321.91504746 178.83998436 -323.52563477 189.03979492 C-323.84873228 191.05603649 -324.19116506 193.06925273 -324.55053711 195.0793457 C-325.99162015 203.48212666 -326.34900298 211.66978995 -326.3125 220.1875 C-326.31034485 220.87809509 -326.3081897 221.56869019 -326.30596924 222.2802124 C-326.20325375 242.99489933 -323.86727529 262.72772916 -317.74658203 282.56787109 C-317.05030016 284.83613795 -316.39205317 287.11151567 -315.74609375 289.39453125 C-313.06509549 298.68968914 -309.425799 307.40578603 -305 316 C-304.60538574 316.76860352 -304.21077148 317.53720703 -303.80419922 318.32910156 C-288.55416793 347.70946776 -267.7257419 373.31596705 -241 393 C-240.175 393.62003906 -239.35 394.24007813 -238.5 394.87890625 C-192.4003342 428.44133186 -136.27763689 439.49035047 -80.35546875 431.55224609 C-71.3776689 430.07467164 -62.696091 427.63381607 -54 425 C-53.23107422 424.78005371 -52.46214844 424.56010742 -51.66992188 424.33349609 C-32.27938017 418.78540938 -13.43707774 409.67493372 3 398 C4.43279297 397.00226563 4.43279297 397.00226563 5.89453125 395.984375 C15.35522015 389.26265477 24.24236709 382.09442179 32.22265625 373.65234375 C34 372 34 372 36 372 C36.25652344 371.41476562 36.51304687 370.82953125 36.77734375 370.2265625 C38.10562162 367.80765392 39.56524801 366.26801128 41.5625 364.375 C44.14015389 361.95478041 44.14015389 361.95478041 46 359 C50.42127418 359.43597481 52.91267516 362.44505977 55.89453125 365.42578125 C56.44614426 365.96978073 56.99775726 366.51378021 57.56608582 367.07426453 C58.72719468 368.22458473 59.8843688 369.37888837 61.0378418 370.53686523 C62.80981753 372.30981606 64.60205648 374.06035909 66.39648438 375.81054688 C67.52213143 376.93098905 68.64652499 378.05269226 69.76953125 379.17578125 C70.3089888 379.69884354 70.84844635 380.22190582 71.4042511 380.76081848 C74.96524985 384.38976414 74.96524985 384.38976414 75.11669922 387.04931641 C73.54485476 389.79506132 71.59735108 391.79238952 69.36328125 394.03515625 C68.89205841 394.51051819 68.42083557 394.98588013 67.93533325 395.47564697 C66.40331113 397.01384951 64.85919788 398.53906388 63.3125 400.0625 C62.78834503 400.58266693 62.26419006 401.10283386 61.72415161 401.63876343 C53.90985875 409.38299845 45.96493695 416.60589056 37 423 C35.83230263 423.86058239 34.66566336 424.72260203 33.5 425.5859375 C25.92573102 431.14947655 18.1311542 436.28034602 10 441 C9.25443848 441.43489746 8.50887695 441.86979492 7.74072266 442.31787109 C-1.9908219 447.95192321 -11.58710029 453.0024783 -22.2265625 456.68359375 C-25.15161889 457.70403268 -27.98521819 458.79716617 -30.84765625 459.97265625 C-45.91439201 466.04873565 -62.00142208 469.45953507 -78 472 C-78.71639648 472.11859375 -79.43279297 472.2371875 -80.17089844 472.359375 C-91.96809873 474.22823841 -103.83700935 474.17866684 -115.75 474.1875 C-116.53914795 474.18858765 -117.3282959 474.18967529 -118.14135742 474.1907959 C-132.82644641 474.18850636 -147.23726707 473.69985128 -161.6875 470.8125 C-162.80471436 470.59182861 -163.92192871 470.37115723 -165.07299805 470.14379883 C-202.3122503 462.53640856 -238.22914401 446.74362748 -268 423 C-268.81984375 422.3709375 -269.6396875 421.741875 -270.484375 421.09375 C-277.70916375 415.47958295 -284.37778737 409.30178299 -291 403 C-291.51884766 402.50983398 -292.03769531 402.01966797 -292.57226562 401.51464844 C-300.02362552 394.43727675 -306.50010204 386.91496024 -312.68847656 378.71728516 C-313.94242365 377.07538944 -315.22512052 375.46240206 -316.5234375 373.85546875 C-329.95569306 357.01218299 -340.09160677 337.98931294 -348 318 C-348.54865221 316.67674016 -349.09819159 315.35384793 -349.6484375 314.03125 C-359.80577624 289.25137728 -365.9542718 262.40434583 -366.2734375 235.578125 C-366.29209366 234.12203072 -366.29209366 234.12203072 -366.31112671 232.63652039 C-366.53962578 210.52400217 -366.02201268 189.61252238 -361 168 C-360.83483887 167.24251465 -360.66967773 166.4850293 -360.49951172 165.70458984 C-359.55185921 161.3945025 -358.34872544 157.19779646 -357 153 C-356.71753418 152.10087891 -356.43506836 151.20175781 -356.14404297 150.27539062 C-352.42506333 138.50019735 -348.5924061 127.0290743 -343 116 C-342.41039954 114.7680542 -341.82330023 113.53490926 -341.23828125 112.30078125 C-331.08775355 91.11513111 -317.99455741 72.19572971 -302 55 C-300.82877852 53.64977087 -299.66192767 52.29573509 -298.5 50.9375 C-279.03924478 28.64527231 -254.07534697 11.62100796 -228 -2 C-227.35369629 -2.34482422 -226.70739258 -2.68964844 -226.04150391 -3.04492188 C-205.20059434 -14.05278453 -181.16891971 -21.11505356 -158 -25 C-156.57469971 -25.24121582 -156.57469971 -25.24121582 -155.12060547 -25.48730469 C-102.13803001 -34.03146066 -47.50724661 -24.47757583 0 0 Z " fill="#D7CDC7" transform="translate(533,171)"/>
<path d="M0 0 C0.33 0.99 0.66 1.98 1 3 C-2.96 6.96 -6.92 10.92 -11 15 C-11.66 14.67 -12.32 14.34 -13 14 C-11.58474822 12.41540185 -10.1677358 10.83237609 -8.75 9.25 C-7.96109375 8.36828125 -7.1721875 7.4865625 -6.359375 6.578125 C-4.29407328 4.32133835 -2.18264936 2.14260074 0 0 Z " fill="#C1BAB5" transform="translate(300,269)"/>
<path d="M0 0 C0.33 0.99 0.66 1.98 1 3 C-0.24034412 4.32162881 -1.49268626 5.63200453 -2.75 6.9375 C-3.44609375 7.66839844 -4.1421875 8.39929688 -4.859375 9.15234375 C-7.00599725 11.00517646 -8.23532932 11.60771565 -11 12 C-7.49102731 7.81576108 -3.91939465 3.80411834 0 0 Z " fill="#B5AEA9" transform="translate(548,235)"/>
<path d="M0 0 C0.66 0.33 1.32 0.66 2 1 C0.92807816 2.3218362 -0.15802695 3.63217927 -1.25 4.9375 C-1.85328125 5.66839844 -2.4565625 6.39929688 -3.078125 7.15234375 C-5.10741134 9.10326334 -6.254407 9.61731779 -9 10 C-8.06409496 8.8944811 -7.12620142 7.79064547 -6.1875 6.6875 C-5.66542969 6.07261719 -5.14335937 5.45773438 -4.60546875 4.82421875 C-3.12827531 3.14575321 -1.59960869 1.56117966 0 0 Z " fill="#B1A9A5" transform="translate(247,209)"/>
<path d="M0 0 C0.33 0.99 0.66 1.98 1 3 C-0.65 4.65 -2.3 6.3 -4 8 C-4.66 7.67 -5.32 7.34 -6 7 C-4.02 4.69 -2.04 2.38 0 0 Z " fill="#B8B1AD" transform="translate(293,276)"/>
<path d="M0 0 C1 3 1 3 0.25 5.125 C-1 7 -1 7 -4 8 C-2.87548273 5.0280615 -1.77706209 2.66559313 0 0 Z " fill="#B5AEAA" transform="translate(206,258)"/>
<path d="M0 0 C0 4.38968456 -2.12805101 5.76905739 -5 9 C-5.33 8.01 -5.66 7.02 -6 6 C-4.02 4.02 -2.04 2.04 0 0 Z " fill="#A9A4A1" transform="translate(290,493)"/>
</svg>
